<?xml version="1.0" encoding="UTF-8" standalone="no"?>
<svg
   xmlns:dc="http://purl.org/dc/elements/1.1/"
   xmlns:cc="http://creativecommons.org/ns#"
   xmlns:rdf="http://www.w3.org/1999/02/22-rdf-syntax-ns#"
   xmlns:svg="http://www.w3.org/2000/svg"
   xmlns="http://www.w3.org/2000/svg"
   viewBox="0 0 1250 1162.4125"
   height="1162.4125"
   width="1250"
   xml:space="preserve"
   version="1.1"
   id="svg2"><metadata
     id="metadata8"><rdf:RDF><cc:Work
         rdf:about=""><dc:format>image/svg+xml</dc:format><dc:type
           rdf:resource="http://purl.org/dc/dcmitype/StillImage" /></cc:Work></rdf:RDF></metadata><defs
     id="defs6" /><g
     transform="matrix(1.25,0,0,-1.25,0,1162.4125)"
     id="g10"><g
       transform="scale(0.1,0.1)"
       id="g12"><path
         id="path14"
         style="fill:#1c1918;fill-opacity:1;fill-rule:nonzero;stroke:none"
         d="M 8822.89,0 100,0 C 44.7695,0 0,44.7813 0,100 l 0,5320 c 0,55.23 44.7695,100 100,100 l 8722.89,0 c 55.23,0 100,-44.77 100,-100 l 0,-5320 c 0,-55.2187 -44.77,-100 -100,-100" /><path
         id="path16"
         style="fill:#ffffff;fill-opacity:1;fill-rule:nonzero;stroke:none"
         d="m 4619.68,3042.71 3703.4,2198.36 -7723.267,0 3703.397,-2198.36 c 97.54,-57.9 218.93,-57.9 316.47,0" /><path
         id="path18"
         style="fill:#ffffff;fill-opacity:1;fill-rule:nonzero;stroke:none"
         d="M 3184.34,3381.26 280,5105.3 280,476.93 3184.34,3381.26" /><path
         id="path20"
         style="fill:#ffffff;fill-opacity:1;fill-rule:nonzero;stroke:none"
         d="M 8642.89,5105.3 5746.78,3386.14 8642.89,490.012 l 0,4615.288" /><path
         id="path22"
         style="fill:#ffffff;fill-opacity:1;fill-rule:nonzero;stroke:none"
         d="M 8445.21,291.711 5498.29,3238.64 4619.68,2717.08 c -97.54,-57.9 -218.93,-57.9 -316.47,0 L 3432.81,3233.76 478.297,279.238 8445.21,291.711" /><path
         id="path24"
         style="fill:#ffffff;fill-opacity:1;fill-rule:nonzero;stroke:none"
         d="m 280,278.941 0,-0.011 0.004,0 -0.004,0.011" /><path
         id="path26"
         style="fill:#ffffff;fill-opacity:1;fill-rule:nonzero;stroke:none"
         d="m 6921.45,4517.82 c -940.49,0 -1702.91,762.42 -1702.91,1702.91 0,940.48 762.42,1702.9 1702.91,1702.9 940.47,0 1702.89,-762.42 1702.89,-1702.9 0,-940.49 -762.42,-1702.91 -1702.89,-1702.91 z m 2341.4,1034.47 597.15,104.76 0,1121.04 -595.29,104.43 c -52.22,185.51 -125.81,362.05 -218.01,526.79 l 345.81,492.94 -792.71,792.7 -492.93,-345.81 c -163.93,91.75 -339.56,165.09 -524.06,217.25 l -104,592.89 -1121.06,0 -104,-592.89 c -185.44,-52.43 -361.89,-126.26 -526.54,-218.66 l -490.45,344.06 -792.7,-792.7 344.82,-491.54 c -91.92,-164.58 -165.3,-340.93 -217.35,-526.2 l -588.64,-103.26 0,-1121.05 590.48,-103.58 c 52.12,-183.51 125.21,-358.2 216.5,-521.32 l -345.81,-492.94 792.71,-792.69 492.93,345.8 c 163.93,-91.74 339.55,-165.08 524.06,-217.25 l 104,-592.89 1121.05,0 104,592.89 c 183.57,51.9 358.34,124.77 521.56,215.85 l 495.43,-347.56 792.71,792.7 -346.8,494.35 c 91.56,163.27 164.86,338.16 217.14,521.89" /><path
         id="path28"
         style="fill:#1c1918;fill-opacity:1;fill-rule:nonzero;stroke:none"
         d="m 6921.45,7783.63 c -861.79,0 -1562.91,-701.12 -1562.91,-1562.9 0,-861.79 701.12,-1562.91 1562.91,-1562.91 861.77,0 1562.89,701.12 1562.89,1562.91 0,861.78 -701.12,1562.9 -1562.89,1562.9 z m 0,-3405.81 c -1016.19,0 -1842.91,826.73 -1842.91,1842.91 0,1016.17 826.72,1842.9 1842.91,1842.9 1016.17,0 1842.89,-826.73 1842.89,-1842.9 0,-1016.18 -826.72,-1842.91 -1842.89,-1842.91 z m -446.11,-955.65 885.89,0 98.88,563.69 84.62,23.92 c 170.76,48.28 336.09,116.7 491.41,203.39 l 76.71,42.8 471.11,-330.48 626.41,626.42 -329.83,470.16 43.06,76.8 c 87.12,155.38 155.96,320.82 204.59,491.74 l 24.03,84.41 567.78,99.61 0,885.89 -566.2,99.32 -23.86,84.75 c -48.59,172.64 -117.7,339.64 -205.41,496.35 l -42.96,76.76 328.8,468.69 -626.41,626.43 -468.71,-328.8 -76.75,42.96 c -155.97,87.29 -322.1,156.15 -493.78,204.7 l -84.61,23.92 -98.88,563.68 -885.9,0 -98.87,-563.68 -84.61,-23.92 c -172.48,-48.77 -339.4,-118.09 -496.13,-206.04 l -76.81,-43.1 -466.3,327.12 -626.41,-626.42 327.76,-467.23 -42.85,-76.73 c -87.45,-156.57 -156.36,-323.38 -204.8,-495.8 l -23.82,-84.81 -559.6,-98.15 0,-885.9 561.17,-98.44 23.99,-84.47 c 48.48,-170.7 117.11,-335.96 203.99,-491.19 l 42.96,-76.77 -328.8,-468.7 626.42,-626.4 468.69,328.78 76.76,-42.95 c 155.99,-87.3 322.13,-156.17 493.78,-204.7 l 84.61,-23.92 98.88,-563.69 z m 1121.05,-280 -1356.2,0 -109.43,623.78 c -134.5,43.13 -265.54,97.46 -391.28,162.21 l -518.56,-363.79 -958.99,958.98 363.79,518.58 c -64.33,124.9 -118.36,254.99 -161.34,388.51 l -621.49,109.03 0,1356.2 619.38,108.65 c 43.13,135.26 97.55,267 162.51,393.38 l -362.85,517.24 958.97,958.98 516,-361.97 c 126.57,65.36 258.44,120.12 393.85,163.55 l 109.43,623.78 1356.21,0 109.42,-623.78 c 134.51,-43.14 265.54,-97.46 391.27,-162.21 l 518.57,363.79 959,-958.98 -363.8,-518.58 c 65.18,-126.57 119.79,-258.52 163.08,-394.02 l 626.07,-109.83 0,-1356.2 -628.2,-110.2 c -43.14,-133.74 -97.36,-264.08 -161.9,-389.15 l 364.75,-519.93 -959,-958.98 -521.17,365.62 c -124.95,-64.17 -255.11,-118.05 -388.67,-160.88 l -109.42,-623.78" /></g></g></svg>