<?xml version="1.0" encoding="utf-8"?>
<!-- Generator: Adobe Illustrator 15.1.0, SVG Export Plug-In . SVG Version: 6.00 Build 0)  -->
<!DOCTYPE svg PUBLIC "-//W3C//DTD SVG 1.1//EN" "http://www.w3.org/Graphics/SVG/1.1/DTD/svg11.dtd">
<svg version="1.1" id="Layer_1" xmlns="http://www.w3.org/2000/svg" xmlns:xlink="http://www.w3.org/1999/xlink" x="0px" y="0px"
	 width="1080px" height="1080px" viewBox="0 0 1080 1080" enable-background="new 0 0 1080 1080" xml:space="preserve">
<g>
	<path fill="#1B1A19" d="M1036,135.198H44c-2.209,0-4,1.791-4,4v676.069c0,2.209,1.791,4,4,4h992c2.209,0,4-1.791,4-4V139.198
		C1040,136.989,1038.209,135.198,1036,135.198z M540,800.17c-14.311,0-25.912-11.602-25.912-25.912
		c0-14.312,11.601-25.913,25.912-25.913c14.311,0,25.912,11.602,25.912,25.913C565.912,788.568,554.311,800.17,540,800.17z
		 M1006,729.248H66v-564.05h940V729.248z"/>
	<path fill="#FFFFFF" d="M66,729.248h940v-564.05H66V729.248z M941.336,573.92l-41.809,23.826c-2.866,1.633-3.393,5.546-1.061,7.879
		l46.068,46.068c1.953,1.953,1.953,5.119,0,7.071l-19.019,19.02c-1.953,1.952-5.119,1.952-7.071,0l-46.027-46.027
		c-2.345-2.345-6.283-1.798-7.9,1.098l-23.457,41.997c-2.181,3.904-7.998,3.201-9.186-1.109l-38.982-141.465
		c-1.029-3.737,2.401-7.174,6.141-6.151l141.146,38.626C944.477,565.93,945.206,571.714,941.336,573.92z M816.07,326.081h22.454
		c1.389,0,2.392,0.387,3.009,1.158c0.615,0.774,0.54,2.007-0.23,3.704l-70.141,162.736c-1.237,2.778-3.241,4.167-6.02,4.167h-22.686
		c-1.389,0-2.394-0.423-3.009-1.273c-0.619-0.847-0.542-2.043,0.23-3.588l70.373-162.736
		C811.285,327.47,813.292,326.081,816.07,326.081z M644.632,492.984l70.372-162.736c1.233-2.778,3.241-4.167,6.019-4.167h22.454
		c1.39,0,2.392,0.387,3.01,1.158c0.614,0.774,0.539,2.007-0.231,3.704l-70.141,162.736c-1.237,2.778-3.241,4.167-6.02,4.167h-22.686
		c-1.388,0-2.395-0.423-3.009-1.273C643.781,495.725,643.857,494.528,644.632,492.984z M592.434,387.194
		c3.625-3.548,7.987-5.324,13.08-5.324c5.399,0,9.874,1.776,13.426,5.324c3.549,3.552,5.324,8.026,5.324,13.426
		c0,5.093-1.775,9.455-5.324,13.079c-3.552,3.628-8.026,5.44-13.426,5.44c-5.093,0-9.455-1.812-13.08-5.44
		c-3.627-3.625-5.439-7.986-5.439-13.079C586.994,395.22,588.807,390.746,592.434,387.194z M592.434,468.793
		c3.625-3.624,7.987-5.44,13.08-5.44c5.399,0,9.874,1.816,13.426,5.44c3.549,3.628,5.324,8.066,5.324,13.311
		c0,5.093-1.775,9.491-5.324,13.195c-3.552,3.704-8.026,5.556-13.426,5.556c-5.093,0-9.455-1.852-13.08-5.556
		c-3.627-3.704-5.439-8.102-5.439-13.195C586.994,476.859,588.807,472.421,592.434,468.793z M453.892,390.897
		c0-4.167,2.16-6.402,6.482-6.713h11.343c2.467,0,4.59,0.231,6.366,0.694c1.772,0.463,3.045,2.163,3.82,5.093l1.389,7.407
		c3.856-4.938,8.138-8.796,12.848-11.575c4.706-2.777,10.533-4.167,17.478-4.167c7.715,0,14.852,1.544,21.413,4.63
		c6.558,3.089,12.229,7.256,17.014,12.5c4.782,5.248,8.565,11.422,11.344,18.519c2.777,7.1,4.166,14.739,4.166,22.917
		c0,8.182-1.353,15.821-4.051,22.917c-2.702,7.1-6.481,13.311-11.343,18.635c-4.861,5.324-10.612,9.491-17.246,12.5
		c-6.637,3.009-13.889,4.514-21.76,4.514c-5.866,0-11.075-1.157-15.625-3.472c-4.554-2.315-8.374-5.093-11.459-8.334v50.002
		c0,2.003-0.619,3.664-1.852,4.977c-1.237,1.31-3.01,1.968-5.324,1.968h-17.593c-2.008,0-3.744-0.618-5.208-1.853
		c-1.468-1.236-2.199-2.933-2.199-5.092V390.897z M366.392,390.897c0-4.474,2.236-6.713,6.713-6.713h6.25v-31.25
		c0-4.012,2.391-6.25,7.176-6.713l17.13-2.546c0.308-0.152,0.846-0.231,1.621-0.231c2.159,0,3.624,0.658,4.398,1.968
		c0.771,1.313,1.157,2.973,1.157,4.977v33.797h13.889c1.852,0,3.357,0.579,4.514,1.736c1.158,1.157,1.736,2.817,1.736,4.977v12.732
		c0,2.471-0.579,4.283-1.736,5.44c-1.157,1.157-2.662,1.736-4.514,1.736h-13.889v80.326c0,2.163-0.463,3.819-1.389,4.977
		c-0.926,1.157-2.546,1.736-4.861,1.736h-19.445c-2.315,0-3.859-0.579-4.63-1.736c-0.774-1.158-1.157-2.814-1.157-4.977v-80.326
		h-6.25c-4.478,0-6.713-2.391-6.713-7.176V390.897z M290.467,390.897c0-4.474,2.235-6.713,6.713-6.713h6.25v-31.25
		c0-4.012,2.391-6.25,7.176-6.713l17.13-2.546c0.308-0.152,0.846-0.231,1.621-0.231c2.159,0,3.624,0.658,4.398,1.968
		c0.771,1.313,1.158,2.973,1.158,4.977v33.797h13.889c1.852,0,3.356,0.579,4.514,1.736c1.157,1.157,1.736,2.817,1.736,4.977v12.732
		c0,2.471-0.579,4.283-1.736,5.44c-1.158,1.157-2.663,1.736-4.514,1.736h-13.889v80.326c0,2.163-0.463,3.819-1.389,4.977
		c-0.926,1.157-2.546,1.736-4.861,1.736h-19.445c-2.315,0-3.859-0.579-4.63-1.736c-0.774-1.158-1.157-2.814-1.157-4.977v-80.326
		h-6.25c-4.478,0-6.713-2.391-6.713-7.176V390.897z M158.056,331.637c0-1.697,0.463-3.046,1.389-4.051
		c0.925-1.002,2.314-1.505,4.167-1.505h18.982c1.696,0,3.085,0.387,4.167,1.158c1.078,0.774,1.62,2.239,1.62,4.398v66.205
		c1.233-1.852,3.125-3.704,5.672-5.556c2.546-1.852,5.439-3.508,8.681-4.977c3.241-1.465,6.713-2.622,10.417-3.472
		c3.704-0.846,7.407-1.273,11.111-1.273c6.944,0,13.155,1.237,18.635,3.704c5.476,2.47,10.146,5.903,14.005,10.301
		c3.855,4.398,6.829,9.57,8.913,15.51c2.083,5.943,3.201,12.309,3.356,19.098c0,1.081,0.076,1.931,0.232,2.546v58.335
		c0,1.852-0.542,3.281-1.621,4.283c-1.081,1.005-2.471,1.505-4.167,1.505h-19.213c-2.163,0-3.628-0.463-4.398-1.389
		c-0.774-0.926-1.158-2.314-1.158-4.167v-58.566c0-6.17-2.123-11.458-6.366-15.856c-4.246-4.398-9.455-6.598-15.625-6.598
		c-2.934,0-6.059,0.579-9.375,1.736c-3.321,1.157-6.406,2.778-9.26,4.861c-2.857,2.083-5.208,4.514-7.06,7.292
		c-1.853,2.778-2.778,5.711-2.778,8.797v58.797c0,2.163-0.774,3.552-2.314,4.167c-1.544,0.619-3.165,0.926-4.862,0.926h-17.13
		c-4.015,0-6.019-1.772-6.019-5.324V331.637z"/>
	<path fill="#FFFFFF" d="M490.583,460.344c2.391,2.626,5.208,4.709,8.449,6.25c3.241,1.544,6.633,2.315,10.186,2.315
		c3.548,0,6.865-0.771,9.954-2.315c3.085-1.541,5.787-3.624,8.102-6.25c2.315-2.623,4.167-5.672,5.555-9.144
		c1.39-3.473,2.083-7.212,2.083-11.227c0-4.011-0.694-7.755-2.083-11.227c-1.389-3.472-3.24-6.518-5.555-9.144
		c-2.315-2.623-5.017-4.666-8.102-6.135c-3.089-1.465-6.406-2.199-9.954-2.199c-3.552,0-6.909,0.734-10.07,2.199
		c-3.165,1.469-5.943,3.472-8.333,6.019c-2.395,2.546-4.322,5.555-5.787,9.028c-1.468,3.472-2.199,7.14-2.199,10.996
		c0,4.167,0.694,8.026,2.083,11.574C486.3,454.636,488.188,457.722,490.583,460.344z"/>
	<path fill="#1B1A19" d="M661.994,914.822c2.209,0,4-1.791,4-4v-77.566c0-2.209-1.791-4-4-4H418.006c-2.209,0-4,1.791-4,4v77.566
		c0,2.209,1.791,4,4,4H661.994z"/>
	<path fill="#1B1A19" d="M762.522,924.813H317.478c-2.209,0-4,1.79-4,4v11.989c0,2.21,1.791,4,4,4h445.045c2.209,0,4-1.79,4-4
		v-11.989C766.522,926.603,764.731,924.813,762.522,924.813z"/>
	<path fill="#1B1A19" d="M792.893,532.277l38.982,141.465c1.188,4.311,7.005,5.014,9.186,1.109l23.457-41.997
		c1.617-2.896,5.556-3.442,7.9-1.098l46.027,46.027c1.952,1.952,5.118,1.952,7.071,0l19.019-19.02c1.953-1.952,1.953-5.118,0-7.071
		l-46.068-46.068c-2.332-2.333-1.806-6.246,1.061-7.879l41.809-23.826c3.87-2.206,3.141-7.99-1.156-9.167l-141.146-38.626
		C795.294,525.103,791.863,528.54,792.893,532.277z"/>
	<path fill="#1B1A19" d="M164.075,497.845h17.13c1.697,0,3.317-0.308,4.862-0.926c1.541-0.615,2.314-2.004,2.314-4.167v-58.797
		c0-3.085,0.926-6.019,2.778-8.797c1.852-2.777,4.203-5.208,7.06-7.292c2.854-2.083,5.939-3.704,9.26-4.861
		c3.316-1.158,6.441-1.736,9.375-1.736c6.171,0,11.379,2.199,15.625,6.598c4.243,4.398,6.366,9.687,6.366,15.856v58.566
		c0,1.853,0.384,3.241,1.158,4.167c0.771,0.926,2.235,1.389,4.398,1.389h19.213c1.696,0,3.085-0.5,4.167-1.505
		c1.078-1.002,1.621-2.431,1.621-4.283v-58.335c-0.156-0.615-0.232-1.465-0.232-2.546c-0.155-6.789-1.273-13.155-3.356-19.098
		c-2.084-5.939-5.057-11.111-8.913-15.51c-3.859-4.398-8.529-7.831-14.005-10.301c-5.48-2.467-11.69-3.704-18.635-3.704
		c-3.704,0-7.408,0.427-11.111,1.273c-3.704,0.85-7.176,2.007-10.417,3.472c-3.241,1.469-6.135,3.125-8.681,4.977
		c-2.547,1.852-4.438,3.704-5.672,5.556v-66.205c0-2.16-0.542-3.625-1.62-4.398c-1.082-0.771-2.471-1.158-4.167-1.158h-18.982
		c-1.852,0-3.241,0.503-4.167,1.505c-0.926,1.005-1.389,2.354-1.389,4.051v160.884C158.056,496.073,160.06,497.845,164.075,497.845z
		"/>
	<path fill="#1B1A19" d="M297.18,410.806h6.25v80.326c0,2.163,0.383,3.819,1.157,4.977c0.771,1.157,2.315,1.736,4.63,1.736h19.445
		c2.315,0,3.936-0.579,4.861-1.736c0.926-1.158,1.389-2.814,1.389-4.977v-80.326h13.889c1.852,0,3.356-0.579,4.514-1.736
		c1.157-1.158,1.736-2.97,1.736-5.44v-12.732c0-2.159-0.579-3.819-1.736-4.977c-1.158-1.157-2.663-1.736-4.514-1.736h-13.889
		v-33.797c0-2.003-0.387-3.664-1.158-4.977c-0.774-1.31-2.239-1.968-4.398-1.968c-0.774,0-1.313,0.079-1.621,0.231l-17.13,2.546
		c-4.785,0.463-7.176,2.702-7.176,6.713v31.25h-6.25c-4.478,0-6.713,2.239-6.713,6.713v12.732
		C290.467,408.415,292.702,410.806,297.18,410.806z"/>
	<path fill="#1B1A19" d="M373.105,410.806h6.25v80.326c0,2.163,0.383,3.819,1.157,4.977c0.771,1.157,2.315,1.736,4.63,1.736h19.445
		c2.315,0,3.935-0.579,4.861-1.736c0.926-1.158,1.389-2.814,1.389-4.977v-80.326h13.889c1.852,0,3.357-0.579,4.514-1.736
		c1.158-1.158,1.736-2.97,1.736-5.44v-12.732c0-2.159-0.579-3.819-1.736-4.977c-1.157-1.157-2.662-1.736-4.514-1.736h-13.889
		v-33.797c0-2.003-0.387-3.664-1.157-4.977c-0.774-1.31-2.239-1.968-4.398-1.968c-0.774,0-1.313,0.079-1.621,0.231l-17.13,2.546
		c-4.785,0.463-7.176,2.702-7.176,6.713v31.25h-6.25c-4.478,0-6.713,2.239-6.713,6.713v12.732
		C366.392,408.415,368.627,410.806,373.105,410.806z"/>
	<path fill="#1B1A19" d="M456.091,542.059c1.465,1.234,3.201,1.853,5.208,1.853h17.593c2.314,0,4.087-0.658,5.324-1.968
		c1.233-1.313,1.852-2.973,1.852-4.977v-50.002c3.085,3.241,6.905,6.019,11.459,8.334c4.55,2.315,9.759,3.472,15.625,3.472
		c7.871,0,15.123-1.505,21.76-4.514c6.634-3.009,12.385-7.176,17.246-12.5c4.861-5.324,8.641-11.535,11.343-18.635
		c2.698-7.097,4.051-14.736,4.051-22.917c0-8.178-1.389-15.817-4.166-22.917c-2.778-7.097-6.562-13.271-11.344-18.519
		c-4.784-5.245-10.456-9.412-17.014-12.5c-6.561-3.085-13.698-4.63-21.413-4.63c-6.945,0-12.772,1.389-17.478,4.167
		c-4.709,2.778-8.992,6.637-12.848,11.575l-1.389-7.407c-0.774-2.93-2.047-4.63-3.82-5.093c-1.776-0.463-3.899-0.694-6.366-0.694
		h-11.343c-4.322,0.311-6.482,2.546-6.482,6.713v146.069C453.892,539.125,454.623,540.822,456.091,542.059z M485.027,428.515
		c1.465-3.473,3.393-6.482,5.787-9.028c2.391-2.547,5.169-4.55,8.333-6.019c3.161-1.465,6.518-2.199,10.07-2.199
		c3.548,0,6.865,0.734,9.954,2.199c3.085,1.469,5.787,3.512,8.102,6.135c2.315,2.625,4.167,5.671,5.555,9.144
		c1.39,3.472,2.083,7.216,2.083,11.227c0,4.015-0.694,7.754-2.083,11.227c-1.389,3.472-3.24,6.521-5.555,9.144
		c-2.315,2.626-5.017,4.709-8.102,6.25c-3.089,1.544-6.406,2.315-9.954,2.315c-3.552,0-6.945-0.771-10.186-2.315
		c-3.241-1.541-6.059-3.624-8.449-6.25c-2.395-2.623-4.283-5.708-5.671-9.26c-1.389-3.548-2.083-7.408-2.083-11.574
		C482.828,435.655,483.559,431.987,485.027,428.515z"/>
	<path fill="#1B1A19" d="M605.514,500.854c5.399,0,9.874-1.852,13.426-5.556c3.549-3.704,5.324-8.102,5.324-13.195
		c0-5.245-1.775-9.683-5.324-13.311c-3.552-3.624-8.026-5.44-13.426-5.44c-5.093,0-9.455,1.816-13.08,5.44
		c-3.627,3.628-5.439,8.066-5.439,13.311c0,5.093,1.813,9.491,5.439,13.195C596.059,499.002,600.421,500.854,605.514,500.854z"/>
	<path fill="#1B1A19" d="M605.514,419.139c5.399,0,9.874-1.812,13.426-5.44c3.549-3.625,5.324-7.986,5.324-13.079
		c0-5.4-1.775-9.875-5.324-13.426c-3.552-3.548-8.026-5.324-13.426-5.324c-5.093,0-9.455,1.776-13.08,5.324
		c-3.627,3.552-5.439,8.026-5.439,13.426c0,5.093,1.813,9.455,5.439,13.079C596.059,417.327,600.421,419.139,605.514,419.139z"/>
	<path fill="#1B1A19" d="M647.409,497.845h22.686c2.778,0,4.782-1.389,6.02-4.167l70.141-162.736
		c0.771-1.696,0.846-2.93,0.231-3.704c-0.618-0.771-1.62-1.158-3.01-1.158h-22.454c-2.777,0-4.785,1.389-6.019,4.167
		l-70.372,162.736c-0.774,1.544-0.851,2.741-0.231,3.588C645.015,497.422,646.021,497.845,647.409,497.845z"/>
	<path fill="#1B1A19" d="M739.448,496.572c0.615,0.85,1.62,1.273,3.009,1.273h22.686c2.778,0,4.782-1.389,6.02-4.167l70.141-162.736
		c0.771-1.696,0.846-2.93,0.23-3.704c-0.617-0.771-1.62-1.158-3.009-1.158H816.07c-2.778,0-4.785,1.389-6.019,4.167l-70.373,162.736
		C738.906,494.528,738.829,495.725,739.448,496.572z"/>
	<circle fill="#FFFFFF" cx="540" cy="774.257" r="25.913"/>
</g>
</svg>
