<?xml version="1.0" encoding="utf-8"?>
<!-- Generator: Adobe Illustrator 15.1.0, SVG Export Plug-In . SVG Version: 6.00 Build 0)  -->
<!DOCTYPE svg PUBLIC "-//W3C//DTD SVG 1.1//EN" "http://www.w3.org/Graphics/SVG/1.1/DTD/svg11.dtd">
<svg version="1.1" id="Layer_1" xmlns="http://www.w3.org/2000/svg" xmlns:xlink="http://www.w3.org/1999/xlink" x="0px" y="0px"
	 width="1080px" height="1080px" viewBox="0 0 1080 1080" enable-background="new 0 0 1080 1080" xml:space="preserve">
<g>
	<path fill="#1B1A19" d="M630.174,669.353v80.847c0,9.134-2.914,16.597-8.706,22.389c-5.811,5.811-12.438,8.706-19.9,8.706H483.408
		c-9.134,0-16.169-3.304-21.145-9.95c-4.975-6.627-7.462-13.682-7.462-21.145V645.721c0-27.362,5.383-50.566,16.168-69.651
		c10.767-19.064,24.449-36.07,41.045-50.995c16.577-14.926,34.398-28.607,53.482-41.045c19.064-12.437,36.886-25.691,53.482-39.8
		c16.577-14.089,30.259-30.045,41.045-47.886c10.766-17.82,16.169-39.179,16.169-64.054c0-17.413-3.731-34.205-11.194-50.374
		c-7.462-16.169-17.626-30.473-30.473-42.91c-12.865-12.438-27.577-22.389-44.153-29.851c-16.597-7.463-34.418-11.194-53.483-11.194
		c-18.248,0-35.661,3.945-52.239,11.816c-16.597,7.89-30.9,18.248-42.91,31.094c-12.029,12.865-21.572,27.577-28.607,44.154
		c-7.055,16.597-10.572,33.582-10.572,50.995v18.657c0,9.134-2.701,15.975-8.085,20.521c-5.402,4.568-12.243,6.841-20.522,6.841
		H254.552c-10.786,0-18.035-2.682-21.766-8.085c-3.731-5.382-5.597-10.979-5.597-16.791V336.02c0-43.94,8.279-83.956,24.876-120.025
		c16.578-36.069,38.965-67.164,67.164-93.283c28.179-26.12,61.14-46.429,98.881-60.946C455.831,47.268,495.419,40,536.891,40
		c42.289,0,82.711,7.268,121.269,21.766c38.558,14.517,72.14,35.04,100.747,61.568c28.606,26.547,51.402,57.835,68.408,93.905
		c16.984,36.07,25.496,76.085,25.496,120.025c0,39.8-5.597,73.188-16.79,100.124c-11.194,26.955-24.876,49.558-41.045,67.786
		c-16.17,18.249-34.01,33.797-53.482,46.643c-19.492,12.865-37.313,24.874-53.482,36.068s-29.852,23.011-41.045,35.449
		C635.771,635.771,630.174,651.124,630.174,669.353z M442.364,940.498c0-28.18,9.736-52.026,29.229-71.519
		c19.473-19.473,42.911-29.229,70.273-29.229c29.016,0,53.056,9.756,72.14,29.229c19.065,19.492,28.607,43.339,28.607,71.519
		c0,27.362-9.542,50.8-28.607,70.273c-19.084,19.473-43.124,29.229-72.14,29.229c-27.362,0-50.8-9.756-70.273-29.229
		C452.1,991.298,442.364,967.86,442.364,940.498z"/>
</g>
</svg>
