<?xml version="1.0" encoding="utf-8"?>
<!-- Generator: Adobe Illustrator 15.1.0, SVG Export Plug-In . SVG Version: 6.00 Build 0)  -->
<!DOCTYPE svg PUBLIC "-//W3C//DTD SVG 1.1//EN" "http://www.w3.org/Graphics/SVG/1.1/DTD/svg11.dtd">
<svg version="1.1" id="Layer_1" xmlns="http://www.w3.org/2000/svg" xmlns:xlink="http://www.w3.org/1999/xlink" x="0px" y="0px"
	 width="1080px" height="1080px" viewBox="0 0 1080 1080" enable-background="new 0 0 1080 1080" xml:space="preserve">
<g>
	<path fill="#1B1A19" d="M670,556.526v482.231c0,0.684,0.559,1.242,1.242,1.242h157.516c0.684,0,1.242-0.559,1.242-1.242V399.01
		c0-1.106-1.338-1.66-2.12-0.878L670.363,555.648C670.131,555.882,670,556.197,670,556.526z"/>
</g>
<g>
	<path fill="#1B1A19" d="M460.5,509.333v529.424c0,0.684,0.559,1.242,1.242,1.242h157.516c0.684,0,1.242-0.559,1.242-1.242v-455.82
		c0-0.482-0.279-0.921-0.716-1.125l-157.517-73.604C461.444,507.824,460.5,508.425,460.5,509.333z"/>
</g>
<g>
	<path fill="#1B1A19" d="M250,684.686v354.072c0,0.684,0.559,1.242,1.242,1.242h157.517c0.683,0,1.242-0.559,1.242-1.242V527.169
		c0-1.106-1.337-1.66-2.12-0.878L250.364,683.808C250.131,684.04,250,684.356,250,684.686z"/>
</g>
<g>
	<path fill="#1B1A19" d="M111.382,822.789L111.382,822.789l-71.019,71.019C40.131,894.04,40,894.356,40,894.686v144.072
		c0,0.684,0.559,1.242,1.242,1.242h157.517c0.683,0,1.242-0.559,1.242-1.242V737.169c0-1.106-1.337-1.66-2.12-0.878L111.382,822.789
		z"/>
</g>
<path fill="#1B1A19" d="M854.506,139.626l32.18,32.18c0.485,0.485,0.485,1.271,0,1.756L616.729,443.519
	c-0.37,0.37-0.931,0.468-1.404,0.247l-189.696-88.641c-0.517-0.242-1.045-0.429-1.577-0.591c-4.305-1.671-9.396-0.783-12.856,2.677
	L118.528,649.879l0,0l-78.164,78.164c-0.233,0.232-0.364,0.549-0.364,0.878v132.253c0,1.105,1.337,1.66,2.12,0.878l69.262-69.263h0
	l325.527-325.527c0.37-0.37,0.931-0.468,1.404-0.247l190.007,88.787c0.207,0.097,0.419,0.171,0.629,0.255
	c4.42,1.99,9.816,1.19,13.434-2.427l312.186-312.186c0.484-0.485,1.271-0.485,1.756,0l32.18,32.18
	c0.676,0.676,1.83,0.367,2.078-0.557l49.047-183.045c0.247-0.923-0.598-1.769-1.521-1.521l-183.045,49.047
	C854.139,137.796,853.83,138.95,854.506,139.626z"/>
<path fill="#1B1A19" d="M1032.363,199.406l0.074,0.13l-22.479,83.219v0.001l-2.624,9.713l0.005,0.005l-2.34,8.663h-0.007
	l-3.479,12.883c-0.249,0.92-1.399,1.228-2.074,0.554l-15.786-15.783l0.001-0.002l-27.391-27.385
	c-0.487-0.433-1.229-0.427-1.695,0.04l-74.705,74.705c-0.232,0.232-0.363,0.548-0.363,0.876v691.734c0,0.683,0.558,1.24,1.24,1.24
	h157.52c0.683,0,1.24-0.558,1.24-1.24V180.523c0-1.168-1.661-1.389-1.966-0.261L1032.363,199.406z"/>
</svg>
