<?xml version="1.0" encoding="utf-8"?>
<!-- Generator: Adobe Illustrator 15.1.0, SVG Export Plug-In . SVG Version: 6.00 Build 0)  -->
<!DOCTYPE svg PUBLIC "-//W3C//DTD SVG 1.1//EN" "http://www.w3.org/Graphics/SVG/1.1/DTD/svg11.dtd">
<svg version="1.1" id="Layer_1" xmlns="http://www.w3.org/2000/svg" xmlns:xlink="http://www.w3.org/1999/xlink" x="0px" y="0px"
	 width="1080px" height="1080px" viewBox="0 0 1080 1080" enable-background="new 0 0 1080 1080" xml:space="preserve">
<path fill="#1B1A19" d="M1029,840H51c-6.075,0-11-4.925-11-11V251c0-6.075,4.925-11,11-11h978c6.075,0,11,4.925,11,11v578
	C1040,835.075,1035.075,840,1029,840z"/>
<path fill="#FFFFFF" d="M1001,812H79c-6.075,0-11-4.925-11-11V279c0-6.075,4.925-11,11-11h922c6.075,0,11,4.925,11,11v522
	C1012,807.075,1007.075,812,1001,812z"/>
<rect x="46.615" y="355.601" fill="#1B1A19" width="983.951" height="82.29"/>
<path fill="#1B1A19" d="M387.598,742.079H107.612c-2.209,0-4-1.791-4-4v-20c0-2.209,1.791-4,4-4h279.985c2.209,0,4,1.791,4,4v20
	C391.598,740.288,389.807,742.079,387.598,742.079z"/>
<path fill="#1B1A19" d="M659.601,742.099H439.612c-2.209,0-4-1.79-4-4v-20c0-2.209,1.791-4,4-4h219.989c2.209,0,4,1.791,4,4v20
	C663.601,740.309,661.81,742.099,659.601,742.099z"/>
<path fill="#1B1A19" d="M933.25,730.842v31.378l-5.859,5.859h25.179c6.6,0,12-5.4,12-12v-25.237H933.25z"/>
<rect x="933.25" y="692.322" fill="#1B1A19" width="31.319" height="28.52"/>
<path fill="#1B1A19" d="M933.25,650.984v31.338h31.319v-25.237c0-6.6-5.4-12-12-12h-25.219L933.25,650.984z"/>
<path fill="#1B1A19" d="M833.25,762.22v-31.378h-45.672v25.237c0,6.6,5.4,12,12,12h39.531L833.25,762.22z"/>
<rect x="787.578" y="692.322" fill="#1B1A19" width="45.672" height="28.52"/>
<path fill="#1B1A19" d="M833.25,682.322v-31.338l5.899-5.899h-39.571c-6.6,0-12,5.4-12,12v25.237H833.25z"/>
<polygon fill="#1B1A19" points="913.208,645.085 853.292,645.085 843.25,655.127 843.25,758.077 853.251,768.079 913.249,768.079 
	923.25,758.077 923.25,655.127 "/>
</svg>
