<?xml version="1.0" encoding="utf-8"?>
<!-- Generator: Adobe Illustrator 15.1.0, SVG Export Plug-In . SVG Version: 6.00 Build 0)  -->
<!DOCTYPE svg PUBLIC "-//W3C//DTD SVG 1.1//EN" "http://www.w3.org/Graphics/SVG/1.1/DTD/svg11.dtd">
<svg version="1.1" id="Layer_1" xmlns="http://www.w3.org/2000/svg" xmlns:xlink="http://www.w3.org/1999/xlink" x="0px" y="0px"
	 width="1080px" height="1080px" viewBox="0 0 1080 1080" enable-background="new 0 0 1080 1080" xml:space="preserve">
<g>
	<path fill="#1B1A19" d="M878.874,87.478H161.125c-2.209,0-4,1.791-4,4v937.045c0,2.209,1.791,4,4,4h717.749c2.21,0,4-1.791,4-4
		V91.478C882.874,89.268,881.084,87.478,878.874,87.478z M862.874,1008.522c0,2.209-1.79,4-4,4H181.125c-2.209,0-4-1.791-4-4
		V111.478c0-2.209,1.791-4,4-4h677.749c2.21,0,4,1.791,4,4V1008.522z"/>
	<path fill="#FFFFFF" d="M858.874,107.478H181.125c-2.209,0-4,1.791-4,4v897.045c0,2.209,1.791,4,4,4h677.749c2.21,0,4-1.791,4-4
		V111.478C862.874,109.268,861.084,107.478,858.874,107.478z M687.069,142.048c64.349,13.731,118.148,55.917,147.606,112.763
		c1.035,1.998,0.253,4.443-1.762,5.445l-187.332,93.177c-1.482,0.737-3.167-0.542-2.855-2.167l39.554-206.062
		C682.704,142.993,684.867,141.579,687.069,142.048z M504.167,961.526H226.681v-6.091h11.515V480.05c0-2.209,1.791-4,4-4h61.448
		c2.209,0,4,1.791,4,4v475.385H330.7V594.303c0-2.209,1.791-4,4-4h61.448c2.209,0,4,1.791,4,4v361.133h20V722.243
		c0-2.209,1.791-4,4-4h61.448c2.209,0,4,1.791,4,4v233.192h14.571V961.526z M836.455,887.534c0,2.209-1.791,4-4,4H600.604
		c-2.209,0-4-1.791-4-4v-23.498c0-2.21,1.791-4,4-4h231.852c2.209,0,4,1.79,4,4V887.534z M836.455,826.036c0,2.209-1.791,4-4,4
		H600.604c-2.209,0-4-1.791-4-4v-23.499c0-2.209,1.791-4,4-4h231.852c2.209,0,4,1.791,4,4V826.036z M836.455,764.537
		c0,2.209-1.791,4-4,4H600.604c-2.209,0-4-1.791-4-4v-23.498c0-2.209,1.791-4,4-4h231.852c2.209,0,4,1.791,4,4V764.537z
		 M836.455,703.039c0,2.209-1.791,4-4,4H600.604c-2.209,0-4-1.791-4-4v-23.498c0-2.21,1.791-4,4-4h231.852c2.209,0,4,1.79,4,4
		V703.039z M619.467,602.221c-120.471,0-217.491-97.02-217.49-217.491c0.001-120.115,97.374-217.488,217.489-217.488
		c12.81,0,25.356,1.12,37.558,3.247c2.21,0.386,3.682,2.499,3.259,4.702l-39.556,206.074c-0.312,1.625,1.373,2.905,2.855,2.167
		l187.318-93.17c1.994-0.992,4.434-0.173,5.383,1.842c13.251,28.104,20.672,59.496,20.672,92.627
		C836.955,504.847,739.582,602.22,619.467,602.221z"/>
	<path fill="#1B1A19" d="M810.9,290.263l-187.318,93.17c-1.482,0.737-3.167-0.542-2.855-2.167l39.556-206.074
		c0.423-2.203-1.049-4.316-3.259-4.702c-12.201-2.127-24.748-3.247-37.558-3.247c-120.116,0-217.488,97.373-217.489,217.488
		c-0.001,120.471,97.019,217.491,217.49,217.491c120.115-0.001,217.488-97.374,217.488-217.489c0-33.131-7.421-64.523-20.672-92.627
		C815.334,290.09,812.895,289.271,810.9,290.263z"/>
	<path fill="#1B1A19" d="M645.582,353.433l187.332-93.177c2.015-1.002,2.797-3.447,1.762-5.445
		c-29.458-56.846-83.258-99.031-147.606-112.763c-2.202-0.47-4.365,0.944-4.789,3.155l-39.554,206.062
		C642.415,352.891,644.1,354.17,645.582,353.433z"/>
	<path fill="#1B1A19" d="M489.596,722.243c0-2.209-1.791-4-4-4h-61.448c-2.209,0-4,1.791-4,4v233.192h-20V594.303
		c0-2.209-1.791-4-4-4H334.7c-2.209,0-4,1.791-4,4v361.133h-23.057V480.05c0-2.209-1.791-4-4-4h-61.448c-2.209,0-4,1.791-4,4
		v475.385h-11.515v6.091h277.486v-6.091h-14.571V722.243z"/>
	<path fill="#1B1A19" d="M832.455,675.541H600.604c-2.209,0-4,1.79-4,4v23.498c0,2.209,1.791,4,4,4h231.852c2.209,0,4-1.791,4-4
		v-23.498C836.455,677.331,834.664,675.541,832.455,675.541z"/>
	<path fill="#1B1A19" d="M832.455,737.039H600.604c-2.209,0-4,1.791-4,4v23.498c0,2.209,1.791,4,4,4h231.852c2.209,0,4-1.791,4-4
		v-23.498C836.455,738.83,834.664,737.039,832.455,737.039z"/>
	<path fill="#1B1A19" d="M832.455,798.537H600.604c-2.209,0-4,1.791-4,4v23.499c0,2.209,1.791,4,4,4h231.852c2.209,0,4-1.791,4-4
		v-23.499C836.455,800.328,834.664,798.537,832.455,798.537z"/>
	<path fill="#1B1A19" d="M832.455,860.036H600.604c-2.209,0-4,1.79-4,4v23.498c0,2.209,1.791,4,4,4h231.852c2.209,0,4-1.791,4-4
		v-23.498C836.455,861.826,834.664,860.036,832.455,860.036z"/>
	<path fill="#1B1A19" d="M918.874,47.478H201.125c-2.209,0-4,1.791-4,4v12c0,2.209,1.791,4,4,4h16h25.353h65.642h590.753
		c2.21,0,4,1.791,4,4v467.318v433.727v16c0,2.209,1.791,4,4,4h12c2.21,0,4-1.791,4-4V51.478
		C922.874,49.268,921.084,47.478,918.874,47.478z"/>
</g>
</svg>
