<?xml version="1.0" encoding="utf-8"?>
<!-- Generator: Adobe Illustrator 15.1.0, SVG Export Plug-In . SVG Version: 6.00 Build 0)  -->
<!DOCTYPE svg PUBLIC "-//W3C//DTD SVG 1.1//EN" "http://www.w3.org/Graphics/SVG/1.1/DTD/svg11.dtd">
<svg version="1.1" id="Layer_1" xmlns="http://www.w3.org/2000/svg" xmlns:xlink="http://www.w3.org/1999/xlink" x="0px" y="0px"
	 width="1080px" height="1080px" viewBox="0 0 1080 1080" enable-background="new 0 0 1080 1080" xml:space="preserve">
<g>
	<path fill="none" d="M1018,170.218H62c-2.761,0-5,2.239-5,5v541v33.991v0.009h0.005l80.866,140.064c1.924,3.333,6.736,3.333,8.66,0
		l79.423-137.564c0.893-1.547,2.544-2.5,4.33-2.5h8.091H1018c2.762,0,5-2.238,5-5v-34.922V608.302V175.218
		C1023,172.457,1020.762,170.218,1018,170.218z M888.739,263.082c0.007-0.038,0.027-0.07,0.037-0.107
		c0.025-0.104,0.061-0.203,0.104-0.302c0.029-0.068,0.057-0.134,0.094-0.198c0.056-0.096,0.123-0.182,0.194-0.267
		c0.046-0.055,0.086-0.111,0.139-0.16c0.089-0.084,0.192-0.152,0.299-0.219c0.054-0.033,0.099-0.074,0.156-0.102
		c0.173-0.084,0.36-0.148,0.568-0.179l32.65-4.744c0.153-0.022,0.303-0.063,0.443-0.121c0.142-0.058,0.274-0.132,0.396-0.221
		c0.214-0.155,0.386-0.361,0.521-0.595c0.02-0.034,0.047-0.063,0.064-0.099l14.602-29.586c0.032-0.065,0.08-0.112,0.118-0.172
		c0.382-0.602,1.016-0.898,1.652-0.874c0.06,0.002,0.116,0.015,0.175,0.023c0.135,0.018,0.265,0.046,0.394,0.092
		c0.064,0.022,0.124,0.048,0.186,0.078c0.123,0.06,0.236,0.135,0.346,0.223c0.05,0.04,0.102,0.073,0.147,0.119
		c0.146,0.144,0.277,0.309,0.377,0.51c0,0,0.001,0.001,0.001,0.001l14.602,29.586c0.08,0.162,0.184,0.306,0.305,0.433
		c0.008,0.008,0.017,0.015,0.024,0.023c0.119,0.121,0.252,0.229,0.397,0.316c0.104,0.063,0.212,0.117,0.324,0.161
		c0.121,0.044,0.244,0.083,0.375,0.102l32.649,4.744c0.001,0,0.001,0,0.001,0c0.167,0.024,0.317,0.075,0.46,0.136
		c0.042,0.017,0.083,0.033,0.123,0.053c0.012,0.006,0.025,0.009,0.036,0.016c0.129,0.068,0.25,0.147,0.356,0.24l0.001,0l0,0
		c0.064,0.057,0.125,0.118,0.181,0.183c0.028,0.033,0.045,0.074,0.07,0.108c0.051,0.068,0.097,0.137,0.138,0.211
		c0.021,0.037,0.051,0.067,0.068,0.105c0.036,0.076,0.067,0.154,0.094,0.234c0.156,0.482,0.125,1.025-0.138,1.498
		c-0.088,0.157-0.2,0.307-0.341,0.444l-23.626,23.029c-0.446,0.435-0.649,1.062-0.545,1.676L973.535,322
		c0.033,0.193,0.037,0.381,0.016,0.56c-0.065,0.538-0.359,0.996-0.771,1.293c-0.122,0.089-0.257,0.158-0.396,0.215
		c-0.042,0.018-0.085,0.03-0.128,0.044c-0.054,0.018-0.105,0.042-0.161,0.056c-0.065,0.015-0.134,0.021-0.202,0.029
		c-0.025,0.003-0.049,0.009-0.075,0.011c-0.149,0.012-0.302,0.003-0.455-0.023c-0.033-0.005-0.066-0.014-0.101-0.021
		c-0.158-0.036-0.316-0.086-0.473-0.168l0,0l-29.203-15.353c-0.139-0.072-0.283-0.127-0.431-0.163
		c-0.148-0.036-0.299-0.054-0.45-0.054c-0.303,0-0.605,0.072-0.881,0.217l-20.126,10.581l-9.077,4.772
		c-0.522,0.274-1.076,0.279-1.552,0.096c-0.078-0.03-0.155-0.065-0.229-0.105c-0.05-0.027-0.093-0.063-0.14-0.095
		c-0.037-0.025-0.075-0.048-0.111-0.076c-0.12-0.092-0.232-0.193-0.328-0.311c-0.001-0.001-0.002-0.002-0.003-0.004
		c-0.095-0.118-0.171-0.25-0.235-0.389c-0.02-0.042-0.034-0.084-0.05-0.128c-0.021-0.055-0.048-0.106-0.063-0.164
		c-0.016-0.055-0.018-0.115-0.027-0.172c-0.009-0.048-0.019-0.094-0.022-0.143c-0.016-0.163-0.017-0.33,0.014-0.504
		c0,0,0-0.001,0-0.001l5.577-32.518c0.105-0.614-0.099-1.241-0.545-1.676l-23.625-23.029c0,0-0.001,0-0.001-0.001
		c-0.07-0.068-0.133-0.14-0.19-0.213c-0.029-0.039-0.042-0.083-0.068-0.123c-0.05-0.077-0.094-0.154-0.131-0.235
		c-0.037-0.081-0.068-0.16-0.093-0.244s-0.044-0.166-0.057-0.25c-0.006-0.042-0.024-0.082-0.027-0.123
		c-0.004-0.043,0.007-0.086,0.006-0.129c-0.001-0.085,0.003-0.167,0.014-0.252C888.738,263.166,888.731,263.123,888.739,263.082z
		 M759.653,261.548l32.65-4.744c0.616-0.09,1.149-0.477,1.425-1.036l14.602-29.586c0.694-1.407,2.701-1.407,3.396,0l14.602,29.586
		c0.275,0.559,0.809,0.946,1.426,1.036l32.649,4.744c1.553,0.226,2.173,2.134,1.05,3.229l-23.626,23.029
		c-0.446,0.435-0.65,1.062-0.545,1.676L842.858,322c0.266,1.546-1.357,2.726-2.746,1.996l-29.203-15.353
		c-0.552-0.29-1.211-0.29-1.762,0l-29.204,15.353c-1.389,0.73-3.012-0.449-2.746-1.996l5.577-32.518
		c0.105-0.614-0.099-1.241-0.545-1.676l-23.625-23.029C757.48,263.682,758.101,261.773,759.653,261.548z M628.977,261.548
		l32.65-4.744c0.616-0.09,1.149-0.477,1.425-1.036l14.602-29.586c0.694-1.407,2.701-1.407,3.396,0l14.602,29.586
		c0.275,0.559,0.809,0.946,1.426,1.036l32.649,4.744c1.553,0.226,2.173,2.134,1.05,3.229l-23.626,23.029
		c-0.446,0.435-0.649,1.062-0.545,1.676L712.182,322c0.266,1.546-1.357,2.726-2.746,1.996l-29.203-15.353
		c-0.552-0.29-1.211-0.29-1.763,0l-29.202,15.353c-1.39,0.73-3.013-0.449-2.747-1.996l5.577-32.518
		c0.105-0.614-0.099-1.241-0.545-1.676l-23.626-23.029C626.804,263.682,627.424,261.773,628.977,261.548z M498.3,261.548
		l32.65-4.744c0.617-0.09,1.15-0.477,1.425-1.036l14.602-29.586c0.694-1.407,2.701-1.407,3.396,0l14.602,29.586
		c0.275,0.559,0.809,0.946,1.426,1.036l32.649,4.744c1.553,0.226,2.173,2.134,1.05,3.229l-23.626,23.029
		c-0.446,0.435-0.649,1.062-0.545,1.676L581.506,322c0.265,1.546-1.358,2.726-2.747,1.996l-29.203-15.353
		c-0.552-0.29-1.211-0.29-1.763,0l-29.203,15.353c-1.389,0.73-3.012-0.449-2.747-1.996l5.577-32.518
		c0.105-0.614-0.099-1.241-0.544-1.676l-23.626-23.029C496.127,263.682,496.747,261.773,498.3,261.548z M367.623,261.548
		l32.65-4.744c0.617-0.09,1.15-0.477,1.425-1.036l14.602-29.586c0.694-1.407,2.701-1.407,3.396,0l14.602,29.586
		c0.276,0.559,0.809,0.946,1.425,1.036l32.65,4.744c1.553,0.226,2.173,2.134,1.049,3.229l-23.625,23.029
		c-0.446,0.435-0.65,1.062-0.544,1.676L450.829,322c0.265,1.546-1.358,2.726-2.747,1.996l-29.203-15.353
		c-0.552-0.29-1.21-0.29-1.762,0l-29.203,15.353c-1.389,0.73-3.012-0.449-2.747-1.996l5.578-32.518
		c0.105-0.614-0.098-1.241-0.544-1.676l-23.626-23.029C365.45,263.682,366.07,261.773,367.623,261.548z M181.381,202.05
		c51.409,0,93.084,41.675,93.084,93.084c0,35.363-19.72,66.119-48.762,81.875v-33.5c0-12.974-10.615-23.588-23.588-23.588h-6.019
		c-4.246,4.431-9.293,7.012-14.715,7.012c-5.422,0-10.47-2.581-14.715-7.012h-6.019c-12.973,0-23.588,10.615-23.588,23.588v33.5
		c-29.042-15.755-48.762-46.512-48.762-81.875C88.297,243.725,129.973,202.05,181.381,202.05z M845,708.218H100.297
		c-6.6,0-12-5.4-12-12s5.4-12,12-12H845c6.6,0,12,5.4,12,12S851.6,708.218,845,708.218z M980.702,644.218H100.297
		c-6.6,0-12-5.4-12-12s5.4-12,12-12h880.405c6.601,0,12,5.4,12,12S987.303,644.218,980.702,644.218z M980.702,580.218H100.297
		c-6.6,0-12-5.4-12-12s5.4-12,12-12h880.405c6.601,0,12,5.4,12,12S987.303,580.218,980.702,580.218z M980.702,516.218H100.297
		c-6.6,0-12-5.4-12-12s5.4-12,12-12h880.405c6.601,0,12,5.4,12,12S987.303,516.218,980.702,516.218z M980.702,452.218H100.297
		c-6.6,0-12-5.4-12-12s5.4-12,12-12h880.405c6.601,0,12,5.4,12,12S987.303,452.218,980.702,452.218z"/>
	<path fill="none" d="M181.381,322.362c15.049,0,27.25-19.801,27.25-44.227c0-0.415-0.011-0.813-0.03-1.2
		c-0.629-14.492-12.572-26.049-27.219-26.049c-14.662,0-26.614,11.581-27.22,26.094c-0.019,0.363-0.029,0.745-0.029,1.156
		C154.132,302.562,166.332,322.362,181.381,322.362z"/>
	<path fill="#1B1A19" d="M390.2,287.807c0.446,0.435,0.65,1.062,0.544,1.676L385.167,322c-0.265,1.546,1.358,2.726,2.747,1.996
		l29.203-15.353c0.552-0.29,1.21-0.29,1.762,0l29.203,15.353c1.389,0.73,3.012-0.449,2.747-1.996l-5.577-32.518
		c-0.105-0.614,0.098-1.241,0.544-1.676l23.625-23.029c1.124-1.096,0.504-3.004-1.049-3.229l-32.65-4.744
		c-0.617-0.09-1.149-0.477-1.425-1.036l-14.602-29.586c-0.694-1.407-2.701-1.407-3.396,0l-14.602,29.586
		c-0.275,0.559-0.809,0.946-1.425,1.036l-32.65,4.744c-1.553,0.226-2.173,2.134-1.049,3.229L390.2,287.807z"/>
	<path fill="#1B1A19" d="M520.876,287.807c0.446,0.435,0.649,1.062,0.544,1.676L515.844,322c-0.266,1.546,1.358,2.726,2.747,1.996
		l29.203-15.353c0.552-0.29,1.211-0.29,1.763,0l29.203,15.353c1.389,0.73,3.012-0.449,2.747-1.996l-5.578-32.518
		c-0.104-0.614,0.099-1.241,0.545-1.676l23.626-23.029c1.123-1.096,0.503-3.004-1.05-3.229l-32.649-4.744
		c-0.617-0.09-1.15-0.477-1.426-1.036l-14.602-29.586c-0.694-1.407-2.701-1.407-3.396,0l-14.602,29.586
		c-0.275,0.559-0.809,0.946-1.425,1.036l-32.65,4.744c-1.553,0.226-2.173,2.134-1.049,3.229L520.876,287.807z"/>
	<path fill="#1B1A19" d="M651.553,287.807c0.446,0.435,0.65,1.062,0.545,1.676L646.521,322c-0.266,1.546,1.357,2.726,2.747,1.996
		l29.202-15.353c0.552-0.29,1.211-0.29,1.763,0l29.203,15.353c1.389,0.73,3.012-0.449,2.746-1.996l-5.577-32.518
		c-0.104-0.614,0.099-1.241,0.545-1.676l23.626-23.029c1.123-1.096,0.503-3.004-1.05-3.229l-32.649-4.744
		c-0.617-0.09-1.15-0.477-1.426-1.036l-14.602-29.586c-0.694-1.407-2.701-1.407-3.396,0l-14.602,29.586
		c-0.275,0.559-0.809,0.946-1.425,1.036l-32.65,4.744c-1.553,0.226-2.173,2.134-1.05,3.229L651.553,287.807z"/>
	<path fill="#1B1A19" d="M782.229,287.807c0.446,0.435,0.65,1.062,0.545,1.676L777.197,322c-0.266,1.546,1.357,2.726,2.746,1.996
		l29.204-15.353c0.551-0.29,1.21-0.29,1.762,0l29.203,15.353c1.389,0.73,3.012-0.449,2.746-1.996l-5.577-32.518
		c-0.105-0.614,0.099-1.241,0.545-1.676l23.626-23.029c1.123-1.096,0.503-3.004-1.05-3.229l-32.649-4.744
		c-0.617-0.09-1.15-0.477-1.426-1.036l-14.602-29.586c-0.694-1.407-2.701-1.407-3.396,0l-14.602,29.586
		c-0.275,0.559-0.809,0.946-1.425,1.036l-32.65,4.744c-1.553,0.226-2.173,2.134-1.049,3.229L782.229,287.807z"/>
	<path fill="#1B1A19" d="M888.72,263.459c0.001,0.043-0.01,0.086-0.006,0.129c0.003,0.042,0.021,0.082,0.027,0.123
		c0.013,0.085,0.032,0.167,0.057,0.25s0.056,0.163,0.093,0.244c0.037,0.081,0.081,0.158,0.131,0.235
		c0.026,0.04,0.039,0.084,0.068,0.123c0.058,0.074,0.12,0.146,0.19,0.213c0,0,0,0,0,0l23.626,23.03
		c0.446,0.435,0.65,1.062,0.545,1.676L907.874,322c0,0,0,0.001,0,0.001c-0.03,0.175-0.029,0.342-0.014,0.504
		c0.004,0.049,0.014,0.095,0.022,0.143c0.01,0.057,0.012,0.117,0.027,0.172c0.016,0.057,0.043,0.109,0.063,0.164
		c0.016,0.043,0.03,0.086,0.05,0.128c0.064,0.139,0.141,0.271,0.235,0.389c0.001,0.001,0.002,0.002,0.003,0.004
		c0.096,0.118,0.208,0.219,0.328,0.311c0.036,0.028,0.074,0.051,0.111,0.076c0.047,0.031,0.09,0.067,0.14,0.095
		c0.073,0.04,0.15,0.075,0.229,0.105c0.476,0.183,1.029,0.178,1.552-0.096l9.077-4.772l20.126-10.581
		c0.275-0.145,0.578-0.217,0.881-0.217c0.151,0,0.302,0.018,0.45,0.054c0.147,0.036,0.292,0.091,0.431,0.163l29.203,15.353l0,0
		c0.156,0.082,0.314,0.132,0.473,0.168c0.034,0.008,0.067,0.016,0.101,0.021c0.153,0.026,0.306,0.035,0.455,0.023
		c0.026-0.002,0.05-0.008,0.075-0.011c0.068-0.008,0.137-0.014,0.202-0.029c0.056-0.013,0.107-0.038,0.161-0.056
		c0.043-0.015,0.086-0.027,0.128-0.044c0.14-0.058,0.274-0.126,0.396-0.215c0.411-0.297,0.705-0.755,0.771-1.293
		c0.021-0.179,0.018-0.366-0.016-0.56l-5.577-32.518c-0.104-0.614,0.099-1.241,0.545-1.676l23.626-23.029
		c0.141-0.137,0.253-0.287,0.341-0.444c0.263-0.473,0.294-1.016,0.138-1.498c-0.026-0.08-0.058-0.158-0.094-0.234
		c-0.018-0.038-0.048-0.069-0.068-0.105c-0.041-0.074-0.087-0.143-0.138-0.211c-0.025-0.035-0.042-0.075-0.07-0.108
		c-0.056-0.064-0.116-0.125-0.181-0.183l0,0l-0.001,0c-0.106-0.093-0.228-0.172-0.356-0.24c-0.011-0.006-0.024-0.01-0.036-0.016
		c-0.04-0.02-0.081-0.036-0.123-0.053c-0.143-0.061-0.293-0.112-0.46-0.136c0,0,0,0-0.001,0l-32.649-4.744
		c-0.131-0.019-0.254-0.058-0.375-0.102c-0.112-0.044-0.221-0.099-0.324-0.161c-0.146-0.087-0.278-0.195-0.397-0.316
		c-0.008-0.008-0.017-0.015-0.024-0.023c-0.121-0.127-0.225-0.271-0.305-0.433l-14.602-29.586c0,0-0.001-0.001-0.001-0.001
		c-0.1-0.201-0.231-0.366-0.377-0.51c-0.046-0.045-0.098-0.079-0.147-0.119c-0.109-0.087-0.223-0.163-0.346-0.223
		c-0.062-0.03-0.121-0.056-0.186-0.078c-0.129-0.046-0.259-0.075-0.394-0.092c-0.059-0.008-0.115-0.021-0.175-0.023
		c-0.637-0.024-1.271,0.272-1.652,0.874c-0.038,0.06-0.086,0.106-0.118,0.172l-14.602,29.586c-0.018,0.036-0.045,0.064-0.064,0.099
		c-0.135,0.234-0.307,0.44-0.521,0.595c-0.122,0.089-0.255,0.163-0.396,0.221c-0.141,0.058-0.29,0.099-0.443,0.121l-32.65,4.744
		c-0.208,0.03-0.396,0.095-0.568,0.179c-0.058,0.028-0.103,0.069-0.156,0.102c-0.106,0.067-0.21,0.135-0.299,0.219
		c-0.053,0.049-0.093,0.105-0.139,0.16c-0.071,0.085-0.139,0.171-0.194,0.267c-0.037,0.064-0.064,0.13-0.094,0.198
		c-0.043,0.099-0.078,0.197-0.104,0.302c-0.01,0.037-0.03,0.069-0.037,0.107c-0.008,0.041-0.001,0.083-0.006,0.125
		C888.723,263.292,888.719,263.374,888.72,263.459z M955.06,259.579l32.1,4.664l-23.228,22.641l5.483,31.969l-28.71-15.094v-73.267
		L955.06,259.579z"/>
	<path fill="#1B1A19" d="M1035,153.218H45c-2.761,0-5,2.239-5,5v12.105v569.058v9.524c0,0.443,0.035,0.877,0.066,1.313H40v3.207
		c0,0.878,0.231,1.739,0.67,2.5l97.201,168.357c1.924,3.333,6.736,3.333,8.66,0l89.238-154.564c0.894-1.547,2.544-2.5,4.331-2.5
		H1035c2.762,0,5-2.238,5-5v-604C1040,155.457,1037.762,153.218,1035,153.218z M1023,608.302v101.994v34.922c0,2.762-2.238,5-5,5
		H238.375h-8.091c-1.786,0-3.437,0.953-4.33,2.5l-79.423,137.564c-1.924,3.333-6.736,3.333-8.66,0L57.005,750.218H57v-0.009v-33.991
		v-541c0-2.761,2.239-5,5-5h956c2.762,0,5,2.239,5,5V608.302z"/>
	<path fill="#1B1A19" d="M980.702,492.218H100.297c-6.6,0-12,5.4-12,12s5.4,12,12,12h880.405c6.601,0,12-5.4,12-12
		S987.303,492.218,980.702,492.218z"/>
	<path fill="#1B1A19" d="M980.702,556.218H100.297c-6.6,0-12,5.4-12,12s5.4,12,12,12h880.405c6.601,0,12-5.4,12-12
		S987.303,556.218,980.702,556.218z"/>
	<path fill="#1B1A19" d="M980.702,620.218H100.297c-6.6,0-12,5.4-12,12s5.4,12,12,12h880.405c6.601,0,12-5.4,12-12
		S987.303,620.218,980.702,620.218z"/>
	<path fill="#1B1A19" d="M845,684.218H100.297c-6.6,0-12,5.4-12,12s5.4,12,12,12H845c6.6,0,12-5.4,12-12S851.6,684.218,845,684.218z
		"/>
	<path fill="#1B1A19" d="M980.702,428.218H100.297c-6.6,0-12,5.4-12,12s5.4,12,12,12h880.405c6.601,0,12-5.4,12-12
		S987.303,428.218,980.702,428.218z"/>
	<path fill="#1B1A19" d="M137.06,377.008v-33.5c0-12.974,10.615-23.588,23.588-23.588h6.019c4.245,4.431,9.293,7.012,14.715,7.012
		c5.422,0,10.47-2.581,14.715-7.012h6.019c12.974,0,23.588,10.615,23.588,23.588v33.5c29.042-15.755,48.762-46.512,48.762-81.875
		c0-51.409-41.675-93.084-93.084-93.084c-51.409,0-93.084,41.675-93.084,93.084C88.297,330.497,108.017,361.253,137.06,377.008z
		 M154.162,276.98c0.606-14.513,12.558-26.094,27.22-26.094c14.647,0,26.59,11.557,27.219,26.049c0.019,0.387,0.03,0.785,0.03,1.2
		c0,24.426-12.2,44.227-27.25,44.227s-27.249-19.801-27.249-44.227C154.132,277.725,154.143,277.343,154.162,276.98z"/>
	<polygon fill="#FFFFFF" points="969.415,318.853 963.932,286.883 987.159,264.243 955.06,259.579 940.705,230.492 940.705,303.759 
			"/>
</g>
</svg>
