<?xml version="1.0" encoding="utf-8"?>
<!-- Generator: Adobe Illustrator 15.1.0, SVG Export Plug-In . SVG Version: 6.00 Build 0)  -->
<!DOCTYPE svg PUBLIC "-//W3C//DTD SVG 1.1//EN" "http://www.w3.org/Graphics/SVG/1.1/DTD/svg11.dtd">
<svg version="1.1" id="Layer_1" xmlns="http://www.w3.org/2000/svg" xmlns:xlink="http://www.w3.org/1999/xlink" x="0px" y="0px"
	 width="1080px" height="1080px" viewBox="0 0 1080 1080" enable-background="new 0 0 1080 1080" xml:space="preserve">
<path fill="#1B1A19" d="M1036,918H44c-2.209,0-4-1.791-4-4V166c0-2.209,1.791-4,4-4h992c2.209,0,4,1.791,4,4v748
	C1040,916.209,1038.209,918,1036,918z"/>
<path fill="#FFFFFF" d="M1006,888H74c-2.209,0-4-1.791-4-4V196c0-2.209,1.791-4,4-4h932c2.209,0,4,1.791,4,4v688
	C1010,886.209,1008.209,888,1006,888z"/>
<path fill="#1B1A19" d="M996,878H84c-2.209,0-4-1.791-4-4V206c0-2.209,1.791-4,4-4h912c2.209,0,4,1.791,4,4v668
	C1000,876.209,998.209,878,996,878z"/>
<path fill="#FFFFFF" d="M986,868H94c-2.209,0-4-1.791-4-4V216c0-2.209,1.791-4,4-4h892c2.209,0,4,1.791,4,4v648
	C990,866.209,988.209,868,986,868z"/>
<path fill="#1B1A19" stroke="#1B1A19" stroke-width="6" stroke-miterlimit="10" d="M958.348,668.299l-21.093,17.605
	c-0.296,0.247-0.423,0.64-0.329,1.013l6.716,26.642c0.152,0.605-0.28,1.2-0.902,1.242l-27.414,1.846
	c-0.383,0.026-0.718,0.27-0.86,0.626l-10.227,25.501c-0.232,0.579-0.933,0.807-1.46,0.475l-23.263-14.62
	c-0.326-0.204-0.739-0.204-1.064,0l-23.263,14.62c-0.528,0.332-1.229,0.104-1.46-0.475l-10.228-25.501
	c-0.143-0.356-0.478-0.6-0.86-0.626l-27.413-1.846c-0.623-0.042-1.056-0.637-0.903-1.242l6.716-26.642
	c0.095-0.373-0.033-0.766-0.328-1.013l-21.093-17.605c-0.479-0.4-0.479-1.136,0-1.536l21.093-17.605
	c0.295-0.247,0.423-0.64,0.328-1.013l-6.716-26.642c-0.152-0.605,0.28-1.2,0.903-1.242l27.413-1.846
	c0.383-0.026,0.718-0.27,0.86-0.626l10.228-25.501c0.231-0.579,0.932-0.807,1.46-0.475l23.263,14.62
	c0.325,0.204,0.738,0.204,1.064,0l23.263-14.62c0.527-0.332,1.228-0.104,1.46,0.475l10.227,25.501c0.143,0.356,0.478,0.6,0.86,0.626
	l27.414,1.846c0.622,0.042,1.055,0.637,0.902,1.242l-6.716,26.642c-0.094,0.373,0.033,0.766,0.329,1.013l21.093,17.605
	C958.826,667.163,958.826,667.898,958.348,668.299z"/>
<path fill="#1B1A19" d="M928.302,699.835l-48.903,10.376c-0.274,0.058-0.557,0.058-0.83,0l-48.904-10.376
	c-1.08-0.229-2.142,0.461-2.371,1.541l-26.142,123.213c-0.376,1.774,1.615,3.094,3.103,2.055l30.995-21.653
	c0.949-0.662,2.261-0.384,2.858,0.606l19.533,32.374c0.938,1.553,3.293,1.156,3.669-0.618l15.717-74.08
	c0.448-2.113,3.465-2.113,3.913,0l15.717,74.08c0.377,1.774,2.731,2.171,3.669,0.618l19.534-32.374
	c0.598-0.99,1.908-1.269,2.857-0.606l30.996,21.653c1.487,1.039,3.478-0.28,3.102-2.055l-26.142-123.213
	C930.444,700.296,929.382,699.605,928.302,699.835z"/>
<path fill="#FFFFFF" stroke="#1B1A19" stroke-width="6" stroke-miterlimit="10" d="M879.751,588.166l17.606,21.094
	c0.246,0.295,0.64,0.422,1.012,0.328l26.642-6.716c0.605-0.152,1.2,0.28,1.242,0.903l1.846,27.413
	c0.026,0.383,0.27,0.718,0.626,0.86l25.501,10.227c0.579,0.232,0.807,0.933,0.475,1.461l-14.62,23.263
	c-0.204,0.325-0.204,0.738,0,1.063l14.62,23.263c0.332,0.528,0.104,1.229-0.475,1.461l-25.501,10.227
	c-0.356,0.143-0.6,0.478-0.626,0.86l-1.846,27.414c-0.042,0.622-0.637,1.055-1.242,0.902l-26.642-6.716
	c-0.372-0.094-0.766,0.033-1.012,0.328l-17.606,21.094c-0.4,0.479-1.136,0.479-1.536,0l-17.605-21.094
	c-0.246-0.295-0.64-0.422-1.013-0.328l-26.642,6.716c-0.605,0.152-1.2-0.28-1.242-0.902l-1.846-27.414
	c-0.026-0.383-0.27-0.718-0.626-0.86l-25.501-10.227c-0.579-0.232-0.807-0.933-0.475-1.461l14.62-23.263
	c0.204-0.325,0.204-0.738,0-1.063l-14.62-23.263c-0.332-0.528-0.104-1.229,0.475-1.461l25.501-10.227
	c0.356-0.143,0.6-0.478,0.626-0.86l1.846-27.413c0.042-0.623,0.637-1.056,1.242-0.903l26.642,6.716
	c0.373,0.094,0.767-0.033,1.013-0.328l17.605-21.094C878.615,587.688,879.351,587.688,879.751,588.166z"/>
<circle fill="#FFFFFF" stroke="#1B1A19" stroke-width="6" stroke-miterlimit="10" cx="878.983" cy="667.531" r="49.93"/>
<path fill="#1B1A19" d="M948.078,467H131.922c-2.209,0-4-1.791-4-4v-1c0-2.209,1.791-4,4-4h816.156c2.209,0,4,1.791,4,4v1
	C952.078,465.208,950.287,467,948.078,467z"/>
<path fill="#1B1A19" d="M414.294,811.577H131.922c-2.209,0-4-1.791-4-4v-1c0-2.209,1.791-4,4-4h282.373c2.209,0,4,1.791,4,4v1
	C418.294,809.786,416.503,811.577,414.294,811.577z"/>
<path fill="#1B1A19" d="M948.078,535.999H131.922c-2.209,0-4-1.791-4-4v-1c0-2.209,1.791-4,4-4h816.156c2.209,0,4,1.791,4,4v1
	C952.078,534.208,950.287,535.999,948.078,535.999z"/>
<path fill="#1B1A19" d="M770.25,604.999H131.922c-2.209,0-4-1.791-4-4v-1c0-2.209,1.791-4,4-4H770.25c2.209,0,4,1.791,4,4v1
	C774.25,603.208,772.459,604.999,770.25,604.999z"/>
<path fill="#1B1A19" d="M852.082,398H227.918c-2.209,0-4-1.791-4-4V266c0-2.209,1.791-4,4-4h624.164c2.209,0,4,1.791,4,4v128
	C856.082,396.209,854.291,398,852.082,398z"/>
<path fill="#FFFFFF" d="M842.082,388H237.918c-2.209,0-4-1.791-4-4V276c0-2.209,1.791-4,4-4h604.164c2.209,0,4,1.791,4,4v108
	C846.082,386.209,844.291,388,842.082,388z"/>
<path fill="#1B1A19" d="M770.25,811.577H487.877c-2.209,0-4-1.791-4-4v-1c0-2.209,1.791-4,4-4H770.25c2.209,0,4,1.791,4,4v1
	C774.25,809.786,772.459,811.577,770.25,811.577z"/>
<path fill="#1B1A19" d="M414.294,742.577H131.922c-2.209,0-4-1.791-4-4v-0.999c0-2.21,1.791-4,4-4h282.373c2.209,0,4,1.79,4,4v0.999
	C418.294,740.786,416.503,742.577,414.294,742.577z"/>
<path fill="#1B1A19" d="M770.25,742.577H487.877c-2.209,0-4-1.791-4-4v-0.999c0-2.21,1.791-4,4-4H770.25c2.209,0,4,1.79,4,4v0.999
	C774.25,740.786,772.459,742.577,770.25,742.577z"/>
</svg>
